<svg width="14" height="14" viewBox="0 0 14 14" fill="none" xmlns="http://www.w3.org/2000/svg">
<g clip-path="url(#clip0_331_1879)">
<path d="M8.31252 11.375H6.56252C6.44649 11.375 6.33521 11.4211 6.25316 11.5031C6.17111 11.5852 6.12502 11.6965 6.12502 11.8125V12.6875C6.12502 12.8035 6.17111 12.9148 6.25316 12.9969C6.33521 13.0789 6.44649 13.125 6.56252 13.125H8.31252C8.42855 13.125 8.53983 13.0789 8.62188 12.9969C8.70393 12.9148 8.75002 12.8035 8.75002 12.6875V11.8125C8.75002 11.6965 8.70393 11.5852 8.62188 11.5031C8.53983 11.4211 8.42855 11.375 8.31252 11.375ZM4.81252 9.625H3.50002V1.3125C3.50002 1.19647 3.45393 1.08519 3.37188 1.00314C3.28983 0.921094 3.17855 0.875 3.06252 0.875H2.18752C2.07149 0.875 1.96021 0.921094 1.87816 1.00314C1.79611 1.08519 1.75002 1.19647 1.75002 1.3125V9.625H0.437521C0.0495133 9.625 -0.146815 10.0964 0.12881 10.3718L2.31631 12.9968C2.39835 13.0787 2.50959 13.1248 2.62557 13.1248C2.74155 13.1248 2.85279 13.0787 2.93483 12.9968L5.12233 10.3718C5.39631 10.097 5.20135 9.625 4.81252 9.625ZM11.8125 4.375H6.56252C6.44649 4.375 6.33521 4.42109 6.25316 4.50314C6.17111 4.58519 6.12502 4.69647 6.12502 4.8125V5.6875C6.12502 5.80353 6.17111 5.91481 6.25316 5.99686C6.33521 6.07891 6.44649 6.125 6.56252 6.125H11.8125C11.9286 6.125 12.0398 6.07891 12.1219 5.99686C12.2039 5.91481 12.25 5.80353 12.25 5.6875V4.8125C12.25 4.69647 12.2039 4.58519 12.1219 4.50314C12.0398 4.42109 11.9286 4.375 11.8125 4.375ZM10.0625 7.875H6.56252C6.44649 7.875 6.33521 7.92109 6.25316 8.00314C6.17111 8.08519 6.12502 8.19647 6.12502 8.3125V9.1875C6.12502 9.30353 6.17111 9.41481 6.25316 9.49686C6.33521 9.57891 6.44649 9.625 6.56252 9.625H10.0625C10.1786 9.625 10.2898 9.57891 10.3719 9.49686C10.4539 9.41481 10.5 9.30353 10.5 9.1875V8.3125C10.5 8.19647 10.4539 8.08519 10.3719 8.00314C10.2898 7.92109 10.1786 7.875 10.0625 7.875ZM13.5625 0.875H6.56252C6.44649 0.875 6.33521 0.921094 6.25316 1.00314C6.17111 1.08519 6.12502 1.19647 6.12502 1.3125V2.1875C6.12502 2.30353 6.17111 2.41481 6.25316 2.49686C6.33521 2.57891 6.44649 2.625 6.56252 2.625H13.5625C13.6786 2.625 13.7898 2.57891 13.8719 2.49686C13.9539 2.41481 14 2.30353 14 2.1875V1.3125C14 1.19647 13.9539 1.08519 13.8719 1.00314C13.7898 0.921094 13.6786 0.875 13.5625 0.875Z" fill="#738047"/>
</g>
<defs>
<clipPath id="clip0_331_1879">
<rect width="14" height="14" fill="white"/>
</clipPath>
</defs>
</svg>
